<mxfile host="app.diagrams.net" modified="2023-07-11T17:16:44.837Z" agent="Mozilla/5.0 (X11; Linux x86_64; rv:109.0) Gecko/20100101 Firefox/115.0" etag="yjxGeQsGJpAGzqmEm6rt" version="21.6.1" type="device">
  <diagram name="Page-1" id="1M_064suCVf0jT1ii2Qs">
    <mxGraphModel dx="1114" dy="879" grid="1" gridSize="10" guides="1" tooltips="1" connect="1" arrows="1" fold="1" page="1" pageScale="1" pageWidth="850" pageHeight="1100" math="0" shadow="0">
      <root>
        <mxCell id="0" />
        <mxCell id="1" parent="0" />
        <mxCell id="ZWv4vMVvp58MyBpw_UDq-1" value="&lt;div&gt;Producer&lt;/div&gt;" style="ellipse;whiteSpace=wrap;html=1;fillColor=#dae8fc;strokeColor=#6c8ebf;" vertex="1" parent="1">
          <mxGeometry y="380" width="120" height="80" as="geometry" />
        </mxCell>
        <mxCell id="ZWv4vMVvp58MyBpw_UDq-2" value="Broker" style="ellipse;whiteSpace=wrap;html=1;fillColor=#ffe6cc;strokeColor=#d79b00;" vertex="1" parent="1">
          <mxGeometry x="360" y="380" width="120" height="80" as="geometry" />
        </mxCell>
        <mxCell id="ZWv4vMVvp58MyBpw_UDq-3" value="" style="endArrow=classic;html=1;rounded=0;exitX=1;exitY=0.5;exitDx=0;exitDy=0;entryX=0;entryY=0.5;entryDx=0;entryDy=0;" edge="1" parent="1" source="ZWv4vMVvp58MyBpw_UDq-1" target="ZWv4vMVvp58MyBpw_UDq-2">
          <mxGeometry relative="1" as="geometry">
            <mxPoint x="370" y="460" as="sourcePoint" />
            <mxPoint x="470" y="460" as="targetPoint" />
          </mxGeometry>
        </mxCell>
        <mxCell id="ZWv4vMVvp58MyBpw_UDq-4" value="" style="shape=message;html=1;outlineConnect=0;" vertex="1" parent="ZWv4vMVvp58MyBpw_UDq-3">
          <mxGeometry width="20" height="14" relative="1" as="geometry">
            <mxPoint x="-10" y="-7" as="offset" />
          </mxGeometry>
        </mxCell>
        <mxCell id="ZWv4vMVvp58MyBpw_UDq-5" value="" style="endArrow=classic;html=1;rounded=0;" edge="1" parent="1">
          <mxGeometry relative="1" as="geometry">
            <mxPoint x="422" y="380" as="sourcePoint" />
            <mxPoint x="62" y="380" as="targetPoint" />
            <Array as="points">
              <mxPoint x="422" y="280" />
              <mxPoint x="242" y="280" />
              <mxPoint x="62" y="280" />
            </Array>
          </mxGeometry>
        </mxCell>
        <mxCell id="ZWv4vMVvp58MyBpw_UDq-6" value="ACK/NACK" style="edgeLabel;resizable=0;html=1;align=center;verticalAlign=middle;" connectable="0" vertex="1" parent="ZWv4vMVvp58MyBpw_UDq-5">
          <mxGeometry relative="1" as="geometry">
            <mxPoint x="2" as="offset" />
          </mxGeometry>
        </mxCell>
        <mxCell id="ZWv4vMVvp58MyBpw_UDq-7" value="Consumer" style="ellipse;whiteSpace=wrap;html=1;fillColor=#d5e8d4;strokeColor=#82b366;" vertex="1" parent="1">
          <mxGeometry x="720" y="380" width="120" height="80" as="geometry" />
        </mxCell>
        <mxCell id="ZWv4vMVvp58MyBpw_UDq-8" value="" style="endArrow=classic;html=1;rounded=0;exitX=1;exitY=0.5;exitDx=0;exitDy=0;entryX=0;entryY=0.5;entryDx=0;entryDy=0;" edge="1" parent="1" source="ZWv4vMVvp58MyBpw_UDq-2" target="ZWv4vMVvp58MyBpw_UDq-7">
          <mxGeometry relative="1" as="geometry">
            <mxPoint x="370" y="460" as="sourcePoint" />
            <mxPoint x="470" y="460" as="targetPoint" />
          </mxGeometry>
        </mxCell>
        <mxCell id="ZWv4vMVvp58MyBpw_UDq-9" value="" style="shape=message;html=1;outlineConnect=0;" vertex="1" parent="ZWv4vMVvp58MyBpw_UDq-8">
          <mxGeometry width="20" height="14" relative="1" as="geometry">
            <mxPoint x="-10" y="-7" as="offset" />
          </mxGeometry>
        </mxCell>
        <mxCell id="ZWv4vMVvp58MyBpw_UDq-10" value="" style="endArrow=classic;html=1;rounded=0;entryX=0.5;entryY=1;entryDx=0;entryDy=0;exitX=0.5;exitY=1;exitDx=0;exitDy=0;" edge="1" parent="1" source="ZWv4vMVvp58MyBpw_UDq-7" target="ZWv4vMVvp58MyBpw_UDq-2">
          <mxGeometry relative="1" as="geometry">
            <mxPoint x="430" y="470" as="sourcePoint" />
            <mxPoint x="70" y="470" as="targetPoint" />
            <Array as="points">
              <mxPoint x="780" y="560" />
              <mxPoint x="420" y="560" />
            </Array>
          </mxGeometry>
        </mxCell>
        <mxCell id="ZWv4vMVvp58MyBpw_UDq-11" value="ACK/NACK/REJECT" style="edgeLabel;resizable=0;html=1;align=center;verticalAlign=middle;" connectable="0" vertex="1" parent="ZWv4vMVvp58MyBpw_UDq-10">
          <mxGeometry relative="1" as="geometry" />
        </mxCell>
      </root>
    </mxGraphModel>
  </diagram>
</mxfile>
